<svg width="106" height="104" viewBox="0 0 106 104" fill="none" xmlns="http://www.w3.org/2000/svg">
<g clip-path="url(#clip0_2_1839)">
<path d="M52.0212 103C80.1878 103 103.021 80.1665 103.021 52C103.021 23.8335 80.1878 1 52.0212 1C23.8547 1 1.02124 23.8335 1.02124 52C1.02124 80.1665 23.8547 103 52.0212 103Z" stroke="black" stroke-width="2"/>
<path d="M14.1565 46.0043C17.3217 46.0477 18.9061 48.3067 20.7336 50.9212C22.7244 53.7698 24.9793 57 29.4405 57C33.9017 57 36.1565 53.7698 38.1509 50.9212C39.9958 48.2806 41.5905 46 44.8148 46C48.0425 46 49.6373 48.2806 51.4822 50.9212C53.473 53.7698 55.7314 57 60.1926 57C64.6538 57 66.9086 53.7698 68.903 50.9212C70.7479 48.2806 72.3426 46 75.5703 46C78.7981 46 80.3928 48.2806 82.2378 50.9212C84.2286 53.7698 86.487 57 90.9482 57" stroke="black" stroke-width="2" stroke-miterlimit="10"/>
</g>
<defs>
<clipPath id="clip0_2_1839">
<rect width="105.083" height="104" fill="white" transform="translate(0.0107422)"/>
</clipPath>
</defs>
</svg>
