<svg width="107" height="104" viewBox="0 0 107 104" fill="none" xmlns="http://www.w3.org/2000/svg">
<path d="M53.0005 103C81.167 103 104 80.1665 104 52C104 23.8335 81.167 1 53.0005 1C24.834 1 2.00049 23.8335 2.00049 52C2.00049 80.1665 24.834 103 53.0005 103Z" stroke="black" stroke-width="2"/>
<path d="M27.2607 74V52.5088C27.2607 36.7638 38.7964 24 53.0264 24C67.2564 24 78.792 36.7638 78.792 52.5088V74" stroke="black" stroke-width="2"/>
<path d="M35.3442 74V51.386C35.3442 40.6794 43.2609 32 53.0265 32C62.7922 32 70.7088 40.6794 70.7088 51.386V74" stroke="black" stroke-width="2"/>
<path d="M43.4275 73.5V51.0777C43.4275 44.9597 47.9513 40 53.5317 40C59.112 40 63.6358 44.9597 63.6358 51.0777V73.5" stroke="black" stroke-width="2"/>
</svg>
