<svg width="106" height="104" viewBox="0 0 106 104" fill="none" xmlns="http://www.w3.org/2000/svg">
<g clip-path="url(#clip0_2_1814)">
<path d="M52.042 103C80.2085 103 103.042 80.1665 103.042 52C103.042 23.8335 80.2085 1 52.042 1C23.8755 1 1.04199 23.8335 1.04199 52C1.04199 80.1665 23.8755 103 52.042 103Z" stroke="black" stroke-width="2"/>
<path d="M40.4482 67C52.167 67 61.667 57.598 61.667 46C61.667 34.402 52.167 25 40.4482 25C28.7295 25 19.2295 34.402 19.2295 46C19.2295 57.598 28.7295 67 40.4482 67Z" stroke="black" stroke-width="2"/>
<path d="M62.6772 81C74.396 81 83.896 71.598 83.896 60C83.896 48.402 74.396 39 62.6772 39C50.9585 39 41.4585 48.402 41.4585 60C41.4585 71.598 50.9585 81 62.6772 81Z" stroke="black" stroke-width="2"/>
</g>
<defs>
<clipPath id="clip0_2_1814">
<rect width="105.083" height="104" fill="white" transform="translate(0.0314941)"/>
</clipPath>
</defs>
</svg>
