<svg width="107" height="104" viewBox="0 0 107 104" fill="none" xmlns="http://www.w3.org/2000/svg">
<g clip-path="url(#clip0_2_1844)">
<path d="M52.9795 103C81.146 103 103.979 80.1665 103.979 52C103.979 23.8335 81.146 1 52.9795 1C24.813 1 1.97949 23.8335 1.97949 52C1.97949 80.1665 24.813 103 52.9795 103Z" stroke="black" stroke-width="2"/>
<path d="M14.1045 52.5787C41.6189 18.0627 81.2583 33.2499 92.917 52.5787C76.1285 77.9827 29.9603 81.5724 14.1045 52.5787Z" stroke="black" stroke-width="2"/>
<path d="M53.0055 64C59.423 64 64.6253 58.8513 64.6253 52.5C64.6253 46.1487 59.423 41 53.0055 41C46.5881 41 41.3857 46.1487 41.3857 52.5C41.3857 58.8513 46.5881 64 53.0055 64Z" stroke="black" stroke-width="2"/>
</g>
<defs>
<clipPath id="clip0_2_1844">
<rect width="105.083" height="104" fill="white" transform="translate(0.968994)"/>
</clipPath>
</defs>
</svg>
